<svg version="1.2" xmlns="http://www.w3.org/2000/svg" viewBox="0 0 28 28" width="28" height="28">
	<title>cross-svg</title>
	<style>
		.s0 { fill: #195557 } 
	</style>
	<path id="Layer" class="s0" d="m23.8 22.4c0 0.4-0.2 0.9-0.5 1.2-0.3 0.3-0.7 0.4-1.2 0.4-0.4 0-0.9-0.2-1.2-0.5l-6.9-7.1-7.2 6.9c-0.3 0.3-0.7 0.5-1.2 0.5-0.4 0-0.9-0.2-1.2-0.5-0.3-0.3-0.4-0.7-0.4-1.2 0-0.4 0.2-0.9 0.5-1.2l7.1-6.9-6.9-7.2c-0.3-0.3-0.5-0.7-0.5-1.2 0-0.4 0.2-0.9 0.5-1.2 0.3-0.3 0.7-0.4 1.2-0.4 0.4 0 0.9 0.2 1.2 0.5l6.9 7.1 7.2-6.9c0.3-0.3 0.7-0.5 1.2-0.5 0.4 0 0.9 0.2 1.2 0.5 0.3 0.3 0.4 0.7 0.4 1.2 0 0.4-0.2 0.9-0.5 1.2l-7.1 6.9 6.9 7.2c0.3 0.3 0.5 0.7 0.5 1.2z"/>
</svg>