<svg version="1.2" xmlns="http://www.w3.org/2000/svg" viewBox="0 0 204 204" width="204" height="204">
	<title>Ellipse 4-svg</title>
	<style>
		.s0 { fill: #70908b } 
		.s1 { fill: none;stroke: #94afab } 
		.s2 { fill: #195557 } 
		.s3 { opacity: .1;fill: #000000 } 
	</style>
	<g id="Layer">
		<path id="Layer" class="s0" d="m104 180c-42 0-76-34-76-76 0-42 34-76 76-76 42 0 76 34 76 76 0 42-34 76-76 76z"/>
		<path id="Layer" class="s1" d="m104 179.5c-41.8 0-75.5-33.7-75.5-75.5 0-41.8 33.7-75.5 75.5-75.5 41.8 0 75.5 33.7 75.5 75.5 0 41.8-33.7 75.5-75.5 75.5z"/>
	</g>
	<path id="Layer" fill-rule="evenodd" class="s2" d="m120.6 97.2q0 2.1-0.8 4.3-0.7 1.9-2 3.8c-1.4 2.1-3.3 4.2-5.7 6.4-3.9 3.6-7.7 6.1-7.9 6.2l-1 0.6c-0.4 0.3-1 0.3-1.4 0l-1-0.6c-0.2-0.1-4-2.6-7.9-6.2-2.4-2.2-4.3-4.3-5.7-6.4q-1.3-1.9-2-3.8-0.8-2.2-0.8-4.3 0-2.2 0.8-4.3c0.6-1.3 1.4-2.5 2.4-3.5q1.6-1.5 3.6-2.3 2-0.8 4.3-0.9c2 0 4 0.6 5.8 1.7q0.6 0.4 1.2 0.8 0.6-0.4 1.2-0.8c1.8-1.1 3.8-1.7 5.8-1.7 1.5 0 3 0.3 4.3 0.9 1.4 0.5 2.6 1.3 3.6 2.3 1 1 1.8 2.2 2.4 3.5q0.8 2.1 0.8 4.3zm-3.2 0c0-4.3-3.5-7.8-7.9-7.8-3 0-5.7 1.8-7 4.3-1.3-2.5-4-4.3-7-4.3-4.4 0-7.9 3.5-7.9 7.8 0 8.4 14.9 18 14.9 18 0 0 14.9-9.6 14.9-18z"/>
	<path id="Layer" class="s3" d="m116.4 97.2c0 8.4-14.9 18-14.9 18 0 0-14.9-9.6-14.9-18 0-4.3 3.5-7.8 7.9-7.8 3 0 5.7 1.8 7 4.3 1.3-2.5 4-4.3 7-4.3 4.4 0 7.9 3.5 7.9 7.8z"/>
</svg>