<svg version="1.2" xmlns="http://www.w3.org/2000/svg" viewBox="0 0 204 204" width="204" height="204">
	<title>Ellipse 2-svg</title>
	<style>
		.s0 { fill: #ffedcd } 
		.s1 { fill: #9b9b9a } 
		.s2 { fill: none;stroke: #195557;stroke-linecap: round;stroke-linejoin: round;stroke-width: 2 } 
	</style>
	<g id="Layer">
		<path id="Layer" class="s0" d="m104 180c-42 0-76-34-76-76 0-42 34-76 76-76 42 0 76 34 76 76 0 42-34 76-76 76z"/>
	</g>
	<path id="Layer" class="s1" d="m78.6 99.6c4.7-1.5 5.5 1.2 5.5 1.2-0.2-1 3.7-1.7 3.7-1.7l1.8 3.8c24 13.7 41.3 3.2 41.3 3.2l-1.5 4.7 1.9 6.5-1.7 1.8h-2.2l-1-1.2v-2l-2-1.8-20.5 0.3c0.9 1.7 0.2 4.2 0.2 4.2l-4.7 0.3c-1.6-4.3-5.6-5.8-5.6-5.8-1 5.3-4.9 6-4.9 6l-3.3-1.3-0.2-2.5v-2.5c-6.5 2-13.3-0.9-13.3-0.9v-1.5l2.8-2.5c-0.5-3.1 3.7-8.3 3.7-8.3z"/>
	<path id="Layer" class="s2" d="m87.9 111.2c-5.4 4.3-15 1.2-15 1.2-2.8-0.8-0.4-2.8-0.4-2.8l0.3-0.3c0.9-0.6 1.5-1.4 1.8-2.4 0.9-3.6 3.6-6.8 3.6-6.8q0.6 0 1.1-0.3 0.5-0.3 0.9-0.8l3.4-5.1 1.2 1c0.3 0.2 0.7 0.3 1 0.3 0.4 0 0.8-0.2 1-0.5 0.8-0.8 1.8-1.8 2.7-4.1m3.5 0.2c1.5-0.7 3.7-1.5 5.3-3.3l3.2 0.6q0.8-0.1 1.7-0.3c1.4-0.3 3.2-1.5 3.2-1.5m4.3 1.5c2.5 0.4 5.4 0.8 8 0.8l0.4 0.6q0.9 1.5 2.2 2.5c1.1 1 1.7 1.1 3.7 1.1m6.3 9.7c-3.1-1.2-3.6-4.4-4.6-5.7m3.4 9.9c0 3.1-1.1 4.1-1.1 4.1 1.5 2.1 1.6 4.7 1.5 6.4-0.1 1.1-0.9 1.9-2.1 1.9h-0.4c-1.1 0-2-0.9-1.9-2.1q0-0.9-0.2-1.6c-0.2-1-1.2-1.7-2.3-1.4-4.8 1-20 0.6-20 0.6 0.4 0.4 0.6 1.3 0.7 2.3q0 0.4-0.1 0.8-0.2 0.4-0.4 0.7-0.3 0.3-0.7 0.5-0.4 0.2-0.8 0.2h-2c-0.9 0-1.6-0.5-1.9-1.3-1.3-3.6-4.8-5-4.8-5l-2.8 5.2q-0.3 0.5-0.8 0.8-0.4 0.3-1 0.3h-1.6q-0.5 0-1-0.3-0.4-0.2-0.7-0.7-0.3-0.4-0.3-0.9 0-0.5 0.2-1l0.2-0.5m-1.6-14.5c0 0 2.1-3.3 4-0.3 1.3 2-0.3 5-1.4 6.8-0.3 0.4-0.7 0.7-1.2 0.8-0.4 0.2-0.9 0.1-1.4-0.1m8.2-9.8l5-4.1m-0.9 9.6l6-2m-0.6-5.3l6.1-2.8m-3.1 13.5l6.9-0.8m2-6.1l6.9 1.3m-8.8-5.4l5.5-2.5m0.6 13.8l6.3 1.6"/>
</svg>