<svg version="1.2" xmlns="http://www.w3.org/2000/svg" viewBox="0 0 204 204" width="204" height="204">
	<title>Ellipse 3-svg</title>
	<style>
		.s0 { fill: #e2f0df } 
		.s1 { fill: #195557 } 
	</style>
	<g id="Layer">
		<path id="Layer" class="s0" d="m104 180c-42 0-76-34-76-76 0-42 34-76 76-76 42 0 76 34 76 76 0 42-34 76-76 76z"/>
	</g>
	<path id="Layer" fill-rule="evenodd" class="s1" d="m119.6 92.6l-2.1 2.1-0.5-0.5-3.3 3.2-2.1-2 3.3-3.3-2-2-3.3 3.3-2-2.1 3.2-3.3-0.5-0.5 2.1-2.1zm-5.1 7.9l-2 2.1-1-0.9-14.3 14.3-0.5 0.4h-0.7l-4.3-0.5-2.9 2.9h-4.1l4.6-4.6-0.1-0.1v-0.5l-0.5-4.6-0.1-0.7 0.5-0.5 14.3-14.3-1-1 2.1-2zm-23 8.8l0.4 3.4 0.3 0.3 3.4 0.4 13.8-13.9-4-4z"/>
</svg>